# xmcd
#
# Track frame offsets:
#	150
#	16211
#	38531
#	62983
#	86799
#	116370
#	150417
#	174390
#	204050
#	236465
#
# Disc length: 3441 seconds
#
# Revision: 0
# Processed by: cddbd v1.5.2PL0 Copyright (c) Steve Scherf et al.
# Submitted via: EZCDAudioConverter 1.3.3.1
#
DISCID=6b0d6f0a
DTITLE=Dj Nuxe
DYEAR=1900
DGENRE=
TTITLE0=Put Your Fucking Hands Up ( Breaks ) - Put Your Fucking Hands Up ( Bre
TTITLE0=aks
TTITLE1=Shawty Is Mine ( Ducth ) - Andrez Remix 
TTITLE2=Slash Drink ( Arie Frizz Bootleg ) - Slash Drink ( Arie Frizz Bootleg
TTITLE3=Marry You (Dan Clare Extended Mix) - Bruno Mars
TTITLE4=Carnivale Syntheticsax ( House ) - Carnivale Syntheticsax ( House
TTITLE5=Elements (Syntheticsax and Edx Sunshine Remix) - Elements (Syntheticsax 
TTITLE5=& Edx Sunshine Remix
TTITLE6=Saxo (Plastik Funk Mix) - Guernica
TTITLE7=Milano ( Prog ) - Syntheticsax
TTITLE8=Insomnia (Jewelz Remix) - Insomnia (Jewelz Remix
TTITLE9=Never Be Alone ( Prog ) - Never Be Alone ( Prog
EXTD=
EXTT0=
EXTT1=
EXTT2=
EXTT3=
EXTT4=
EXTT5=
EXTT6=
EXTT7=
EXTT8=
EXTT9=
PLAYORDER=
